<?xml version="1.0" standalone="no"?>
<!DOCTYPE svg PUBLIC "-//W3C//DTD SVG 20010904//EN"
 "http://www.w3.org/TR/2001/REC-SVG-20010904/DTD/svg10.dtd">
<svg version="1.0" xmlns="http://www.w3.org/2000/svg"
 width="2216.000000pt" height="2216.000000pt" viewBox="0 0 2216.000000 2216.000000"
 preserveAspectRatio="xMidYMid meet">
<metadata>
Created by potrace 1.14, written by Peter Selinger 2001-2017
</metadata>
<g transform="translate(0.000000,2216.000000) scale(0.100000,-0.100000)"
fill="#000000" stroke="none">
<path d="M16280 19203 c0 -7 -9 -9 -22 -6 -13 3 -20 2 -16 -2 4 -4 -1 -20 -11
-34 -19 -26 -21 -32 -21 -52 0 -5 -6 -7 -12 -3 -10 6 -10 4 0 -8 9 -11 10 -18
2 -23 -6 -3 -8 -11 -5 -16 4 -5 2 -9 -3 -9 -5 0 -9 -7 -10 -15 -1 -8 -3 -22
-4 -30 -1 -8 -4 -15 -8 -15 -4 0 -12 -17 -19 -37 -7 -21 -14 -43 -17 -49 -3
-7 10 -10 36 -10 22 1 40 -3 40 -7 0 -5 6 -4 13 2 8 6 16 8 20 5 3 -3 23 -6
44 -7 21 -1 44 -6 51 -10 6 -5 12 -4 12 2 0 10 25 9 36 -2 4 -4 13 -2 21 4 9
8 13 8 13 0 0 -6 13 -9 30 -7 16 2 31 -2 34 -8 3 -7 5 -6 5 2 1 8 6 10 13 6 7
-4 32 -9 57 -11 24 -1 61 -5 80 -8 20 -4 57 -8 82 -10 26 -3 58 -9 73 -14 14
-6 26 -7 26 -2 0 4 11 6 25 3 14 -2 25 -7 25 -11 0 -3 12 -6 28 -7 15 0 45 -3
67 -7 77 -14 100 -18 118 -18 9 0 17 -3 17 -7 0 -4 12 -8 28 -8 28 -2 97 -11
97 -14 0 -3 39 -11 62 -13 13 -1 23 -5 23 -9 0 -5 5 -8 11 -8 5 0 7 6 3 13 -4
6 2 3 14 -7 12 -11 22 -16 22 -13 0 3 15 1 33 -4 50 -16 69 -20 106 -24 19 -2
39 -9 45 -15 5 -5 22 -10 37 -10 15 0 31 -5 34 -11 4 -6 13 -8 20 -5 7 2 16 2
20 -2 4 -4 11 -8 16 -8 5 -1 10 -2 12 -4 1 -1 9 -3 17 -5 8 -1 35 -9 60 -16
25 -7 48 -12 53 -11 4 1 7 -2 7 -8 0 -5 7 -7 15 -4 8 4 15 2 15 -4 0 -6 9 -8
20 -5 12 3 20 0 20 -6 0 -7 4 -10 8 -7 5 3 21 -1 36 -9 18 -10 24 -10 19 -2
-5 9 -3 9 9 0 8 -7 18 -10 21 -6 4 3 7 1 7 -5 0 -7 3 -11 8 -11 4 1 9 0 12 -1
3 -1 12 -3 21 -5 16 -3 125 -39 159 -52 8 -4 18 -7 23 -8 4 -2 10 -4 15 -5 4
-1 10 -2 15 -1 4 0 7 -4 7 -10 0 -5 4 -8 8 -5 5 3 19 -1 33 -8 13 -7 46 -19
72 -26 26 -8 47 -18 47 -22 0 -4 3 -7 8 -6 4 1 20 -4 35 -10 16 -7 35 -12 43
-12 8 0 14 -5 14 -10 0 -6 8 -10 18 -8 10 2 16 -2 14 -10 -1 -8 2 -11 7 -7 6
3 23 -1 39 -9 16 -8 32 -12 36 -9 3 4 6 1 6 -5 0 -6 14 -13 30 -17 17 -4 30
-11 30 -16 0 -5 3 -8 8 -7 15 5 71 -25 65 -35 -3 -5 -1 -7 5 -3 11 6 84 -23
90 -36 2 -5 10 -8 19 -8 8 0 27 -8 41 -18 15 -11 42 -25 60 -33 17 -8 32 -18
32 -22 0 -5 4 -6 9 -2 5 3 16 -2 24 -10 9 -8 20 -15 25 -15 6 0 12 -3 14 -7 2
-5 19 -16 38 -25 68 -34 211 -126 222 -142 5 -7 8 -6 8 4 1 9 6 5 15 -10 8
-14 14 -21 15 -17 0 5 7 2 15 -5 33 -30 45 -38 54 -38 6 0 15 -8 20 -17 6 -10
11 -14 11 -10 0 5 6 2 14 -5 8 -7 29 -24 47 -38 18 -14 38 -31 45 -37 7 -7 17
-13 23 -13 6 0 11 -4 11 -10 0 -5 6 -10 14 -10 8 0 16 -7 20 -15 3 -8 10 -15
16 -15 14 0 50 -37 42 -44 -3 -3 3 -6 12 -6 10 0 31 -14 47 -31 16 -17 29 -28
29 -24 0 5 10 -4 23 -18 12 -15 26 -27 29 -27 4 0 25 -17 46 -37 91 -88 137
-128 145 -125 4 1 7 -3 7 -8 0 -6 20 -31 45 -55 24 -25 42 -45 39 -45 -3 0 1
-7 10 -15 8 -8 20 -15 26 -15 6 0 9 -4 6 -8 -3 -5 6 -15 19 -22 13 -7 22 -16
20 -21 -3 -4 9 -19 26 -33 17 -14 28 -26 25 -26 -3 0 2 -8 12 -18 9 -10 33
-37 52 -62 19 -24 45 -54 58 -67 12 -13 22 -28 22 -33 0 -4 3 -10 8 -12 15 -6
71 -85 65 -92 -3 -3 0 -6 8 -6 8 0 25 -20 39 -45 14 -25 28 -45 32 -45 4 0 15
-14 24 -32 9 -17 20 -36 25 -42 41 -49 48 -60 43 -67 -3 -5 -1 -9 3 -9 9 0 48
-61 46 -70 -1 -3 5 -9 13 -13 8 -4 14 -17 14 -28 0 -11 3 -18 8 -15 4 2 19
-20 32 -50 14 -30 28 -54 31 -54 3 0 11 -16 19 -35 8 -19 18 -35 24 -35 5 0 7
-3 3 -6 -3 -3 3 -22 14 -41 11 -19 16 -39 13 -45 -4 -7 -2 -8 4 -4 7 4 12 1
12 -8 0 -9 5 -16 11 -16 5 0 7 -4 4 -10 -3 -5 -1 -10 6 -10 7 0 10 -3 6 -6 -3
-4 5 -28 18 -54 13 -26 21 -50 18 -54 -4 -3 -1 -6 5 -6 7 0 12 -4 12 -9 0 -5
5 -22 11 -38 6 -15 10 -30 9 -32 -1 -2 2 -7 7 -10 9 -6 42 -92 50 -128 3 -13
10 -23 15 -23 5 0 7 -4 4 -8 -3 -5 1 -20 9 -35 8 -15 12 -27 9 -27 -2 0 2 -13
11 -29 8 -17 16 -38 18 -48 1 -10 6 -24 10 -31 5 -7 10 -23 13 -37 2 -13 9
-37 16 -52 12 -31 17 -49 20 -75 1 -10 6 -18 10 -18 4 0 8 -10 8 -23 0 -13 3
-27 7 -31 4 -3 8 -14 9 -23 2 -9 6 -28 10 -42 4 -14 8 -29 9 -33 2 -5 4 -11 5
-15 1 -5 2 -12 1 -17 -1 -4 2 -13 8 -20 5 -6 11 -27 14 -47 2 -19 9 -44 14
-55 6 -10 8 -25 6 -32 -3 -7 0 -19 7 -27 6 -8 9 -19 5 -25 -3 -5 -1 -10 5 -10
6 0 8 -4 5 -10 -3 -5 -1 -19 6 -31 6 -12 7 -19 1 -15 -13 8 -10 -17 4 -35 6
-8 10 -26 9 -41 0 -16 2 -28 5 -28 4 0 7 -6 7 -12 2 -21 12 -83 14 -83 1 0 3
-13 4 -30 2 -16 4 -30 5 -30 1 0 3 -13 5 -30 1 -16 3 -30 5 -30 2 0 6 -31 11
-88 2 -21 7 -41 11 -43 5 -3 6 -9 3 -14 -3 -5 -1 -18 5 -29 6 -13 7 -22 0 -26
-5 -3 -6 -15 -1 -28 4 -12 6 -28 4 -34 -3 -7 1 -13 9 -13 10 0 10 -2 -1 -9 -8
-5 -10 -14 -6 -22 5 -7 9 -31 11 -55 1 -23 5 -47 9 -53 3 -6 0 -11 -7 -11 -8
0 -9 -3 -3 -8 6 -4 10 -26 10 -49 0 -24 4 -43 8 -43 4 0 3 -9 -3 -20 -6 -11
-7 -20 -2 -20 4 0 8 -9 9 -20 1 -11 -3 -20 -9 -20 -7 0 -7 -4 -1 -12 15 -20
15 -71 0 -62 -9 6 -9 4 -1 -7 7 -8 12 -39 13 -69 1 -30 3 -79 4 -108 1 -28 -2
-52 -6 -52 -5 0 -5 -5 -1 -11 10 -17 10 -119 -1 -123 -6 -3 -5 -5 2 -5 6 -1 9
-9 7 -18 -2 -10 -5 -81 -7 -158 -1 -77 -6 -145 -10 -152 -4 -6 -3 -15 3 -18 8
-5 7 -11 -1 -21 -6 -8 -7 -14 -2 -14 7 0 8 -15 3 -40 -4 -22 -6 -51 -5 -65 2
-14 -1 -27 -6 -31 -5 -3 -5 -13 1 -25 6 -10 7 -19 2 -19 -4 0 -8 -18 -7 -40 1
-22 -3 -40 -8 -40 -5 0 -4 -7 3 -15 7 -8 9 -15 4 -15 -5 0 -9 -24 -9 -52 0
-29 -2 -57 -4 -63 -3 -5 -6 -19 -7 -30 -1 -11 -5 -47 -9 -80 -4 -33 -9 -80
-11 -105 -7 -73 -13 -122 -23 -175 -5 -27 -12 -70 -16 -95 -3 -25 -8 -61 -11
-80 -3 -19 -7 -42 -8 -50 -1 -9 -4 -20 -7 -25 -3 -6 -5 -22 -4 -37 0 -16 -2
-28 -6 -28 -5 0 -6 -9 -4 -20 2 -11 0 -22 -4 -25 -5 -2 -8 -22 -7 -44 1 -22
-2 -37 -7 -34 -5 3 -8 -3 -7 -13 1 -11 1 -21 0 -24 -1 -3 -3 -16 -6 -30 -2
-14 -13 -66 -25 -116 -11 -50 -21 -101 -22 -113 -1 -11 -4 -21 -7 -21 -3 0 -7
-11 -8 -26 -1 -14 -7 -34 -12 -45 -8 -14 -7 -19 2 -19 9 0 10 -2 2 -8 -14 -8
-35 -78 -26 -86 3 -3 1 -6 -4 -6 -5 0 -10 -8 -10 -18 0 -13 7 -17 28 -16 16 1
31 -2 34 -7 3 -5 13 -5 24 1 12 6 21 6 25 1 3 -6 13 -10 23 -10 57 -3 82 -7
82 -15 0 -4 7 -6 15 -2 8 3 15 1 15 -4 0 -6 5 -10 11 -10 5 0 7 6 3 13 -4 6 2
4 13 -5 21 -20 38 -24 28 -8 -3 6 -2 10 3 10 5 0 12 12 15 28 6 34 14 68 22
92 11 33 17 65 17 83 -1 9 3 17 7 17 4 0 8 10 8 23 1 21 10 62 13 62 1 0 3 11
5 25 1 14 6 36 9 50 3 14 8 36 11 50 7 34 14 70 20 100 3 14 8 42 11 64 3 21
8 48 10 60 3 11 7 39 10 61 4 22 11 46 16 53 7 8 6 12 -3 12 -11 0 -11 2 1 10
12 8 12 10 1 10 -11 0 -11 3 -1 15 7 8 10 22 6 30 -3 8 -1 15 3 15 5 0 8 8 6
18 -1 9 2 23 8 30 6 8 6 12 -3 12 -8 0 -9 4 -3 13 10 13 14 37 16 99 1 21 6
38 10 38 4 0 3 10 -4 21 -8 15 -8 19 0 15 7 -5 11 6 12 31 1 21 3 47 5 58 2
11 5 38 8 60 16 149 19 182 20 203 0 12 3 22 6 22 3 0 4 16 2 35 -3 21 1 42 9
52 10 12 10 15 2 9 -7 -4 -13 -3 -13 3 0 5 6 12 13 14 9 4 9 6 -1 6 -7 1 -10
6 -6 12 4 7 8 53 9 104 1 50 4 96 6 101 3 5 5 44 4 87 0 42 3 77 7 77 4 0 3
11 -2 24 -6 17 -5 26 3 30 8 3 8 5 -2 5 -11 1 -11 4 -1 16 10 12 10 15 0 15
-10 0 -10 3 0 15 7 8 9 15 5 15 -4 0 -2 6 4 14 9 11 9 16 0 22 -8 5 -9 3 -4
-6 5 -9 4 -11 -4 -6 -6 4 -8 12 -5 18 12 19 13 119 2 112 -7 -4 -8 -2 -4 5 14
22 17 63 5 55 -8 -5 -9 -3 -4 6 12 19 13 80 1 80 -5 0 -1 6 9 14 18 13 18 14
0 23 -11 7 -14 13 -7 17 8 5 8 15 2 32 -12 32 -12 37 -1 29 6 -3 6 7 0 27 -6
22 -5 34 2 39 6 3 7 9 2 12 -5 3 -10 34 -11 69 -4 98 -8 134 -16 146 -3 6 -2
13 4 17 6 4 7 12 3 18 -11 19 -11 47 1 47 7 0 6 3 -1 8 -7 4 -12 16 -12 27 1
33 -8 122 -13 131 -3 5 -6 30 -7 55 -2 43 -8 84 -11 84 -1 0 -3 22 -5 49 -3
27 -10 53 -17 58 -11 6 -10 8 0 8 7 0 10 5 6 11 -7 12 -16 69 -15 101 0 10 -4
20 -9 23 -5 3 -7 12 -4 19 3 8 1 17 -5 20 -6 4 -8 13 -5 21 3 7 1 23 -6 34 -8
16 -8 21 1 21 9 0 9 3 0 14 -6 8 -13 28 -14 45 -1 17 -5 31 -8 31 -3 0 -6 6
-6 13 0 6 -6 39 -13 72 -8 33 -14 62 -15 65 0 3 -4 11 -8 18 -5 6 -6 12 -3 12
3 0 -1 21 -9 47 -8 25 -12 50 -9 55 3 4 0 8 -7 8 -7 0 -9 3 -6 7 4 3 1 13 -6
21 -10 13 -9 14 2 7 11 -6 10 -2 -2 16 -9 13 -17 33 -17 46 0 12 -4 24 -10 28
-5 3 -7 12 -3 20 3 9 -1 15 -8 15 -11 0 -11 3 1 10 10 6 11 10 3 10 -7 0 -13
8 -13 18 0 10 -5 23 -12 30 -7 7 -9 12 -5 12 6 0 1 17 -29 95 -4 11 -6 24 -5
29 1 4 -3 14 -10 22 -6 7 -8 18 -4 24 3 5 2 10 -3 10 -5 0 -15 19 -21 43 -7
23 -16 47 -21 52 -4 6 -10 22 -14 37 -3 15 -11 40 -18 55 -6 15 -12 30 -13 33
0 3 -6 14 -12 25 -6 11 -12 23 -12 27 -2 7 -9 25 -36 93 -5 11 -7 23 -7 28 1
4 -3 7 -8 7 -5 0 -10 3 -9 8 2 13 -13 52 -20 52 -4 0 -8 7 -9 15 -1 8 -3 22
-4 30 -1 8 -5 12 -8 10 -4 -3 -15 17 -25 43 -10 26 -25 58 -34 72 -9 14 -28
49 -41 77 -14 29 -27 53 -30 53 -3 0 -14 20 -25 45 -11 25 -23 45 -27 45 -5 0
-8 7 -8 15 0 9 -6 18 -14 21 -8 3 -12 12 -9 20 3 8 -1 14 -8 14 -7 0 -9 3 -6
6 4 4 -3 15 -15 25 -11 11 -18 19 -14 19 4 0 2 6 -4 13 -5 6 -31 44 -57 82
-25 39 -50 72 -55 73 -4 2 -6 8 -2 13 3 5 0 9 -6 9 -6 0 -15 11 -20 25 -5 14
-17 28 -25 31 -8 4 -15 15 -15 25 0 10 -7 19 -15 19 -8 0 -14 4 -12 9 2 8 -31
53 -75 102 -10 10 -18 23 -18 29 0 5 -9 14 -20 20 -11 6 -20 15 -20 21 0 5
-10 20 -22 33 -13 13 -41 45 -63 72 -22 26 -52 61 -67 76 -16 15 -28 33 -28
39 0 7 -3 10 -6 6 -8 -8 -33 16 -27 26 2 4 -4 7 -13 7 -10 0 -14 3 -11 6 7 8
-42 54 -57 54 -5 0 -7 3 -4 6 7 6 -100 114 -113 114 -6 0 -7 5 -4 10 3 6 1 10
-5 10 -6 0 -26 16 -44 35 -19 19 -38 35 -45 35 -6 0 -11 5 -11 10 0 6 -13 18
-30 29 -16 10 -27 21 -23 24 3 4 1 7 -5 7 -11 0 -47 28 -88 68 -7 6 -15 12
-19 12 -13 0 -34 28 -27 35 4 5 2 5 -4 2 -6 -4 -24 5 -38 18 -15 14 -31 25
-37 25 -5 0 -9 4 -9 9 0 11 -50 44 -67 44 -7 0 -10 4 -8 8 3 4 -11 16 -30 28
-19 11 -35 25 -35 31 0 6 -4 9 -9 6 -4 -3 -16 3 -26 14 -10 11 -24 20 -32 20
-7 0 -13 4 -13 8 0 5 -12 15 -27 23 -16 8 -36 22 -45 32 -9 10 -19 18 -22 17
-9 -1 -60 32 -68 45 -4 5 -8 6 -8 2 0 -5 -12 1 -26 12 -15 11 -30 18 -35 15
-5 -3 -9 2 -9 11 0 9 -4 14 -9 11 -5 -3 -20 3 -33 14 -14 11 -28 16 -32 13 -3
-3 -6 -1 -6 5 0 7 -7 12 -15 12 -8 0 -15 5 -15 10 0 6 -6 10 -14 10 -7 0 -26
10 -42 22 -15 13 -24 16 -19 9 4 -8 -7 -3 -26 11 -19 15 -41 28 -49 30 -8 2
-17 5 -20 8 -8 8 -115 64 -117 62 -10 -7 -23 0 -17 10 4 6 3 8 -4 4 -6 -3 -13
-2 -17 4 -4 6 -11 8 -16 5 -5 -4 -9 -1 -9 4 0 6 -7 11 -15 11 -9 0 -27 7 -40
16 -14 9 -25 12 -25 8 0 -5 -4 -3 -9 4 -4 7 -18 14 -29 15 -12 1 -22 4 -22 8
0 4 -17 13 -37 20 -21 6 -42 15 -48 19 -5 5 -19 10 -30 12 -11 1 -23 7 -26 11
-3 4 -16 9 -27 10 -12 1 -22 4 -22 7 0 4 -25 14 -55 24 -30 9 -55 21 -55 26 0
4 -9 6 -20 3 -12 -3 -20 0 -20 7 0 7 -7 10 -15 6 -8 -3 -15 -1 -15 5 0 6 -4 7
-10 4 -5 -3 -10 -2 -10 4 0 6 -7 8 -15 5 -8 -4 -15 -2 -15 3 0 5 -6 10 -12 11
-13 1 -48 9 -58 12 -3 1 -8 2 -12 1 -5 0 -8 4 -8 10 0 6 -6 9 -14 6 -7 -3 -18
-1 -22 3 -5 5 -19 11 -31 13 -11 1 -29 9 -39 17 -13 11 -16 11 -10 2 6 -11 4
-11 -10 -3 -32 17 -67 27 -111 33 -7 1 -13 4 -13 8 0 4 -6 7 -12 8 -13 1 -48
9 -58 12 -3 1 -9 2 -14 1 -4 -1 -14 3 -22 9 -7 7 -27 14 -44 17 -18 2 -49 11
-70 18 -21 7 -41 11 -44 8 -3 -4 -6 -2 -6 4 0 5 -6 10 -12 10 -30 1 -71 13
-84 24 -11 9 -14 9 -14 -1 0 -10 -3 -10 -15 0 -9 7 -18 10 -22 7 -3 -4 -12 -2
-20 4 -7 6 -13 8 -13 4 0 -4 -7 -2 -15 5 -8 6 -19 9 -25 5 -5 -3 -10 -2 -10 4
0 5 -9 8 -20 6 -11 -2 -22 1 -25 6 -4 5 -11 7 -16 3 -5 -3 -16 0 -24 6 -8 6
-19 9 -24 6 -5 -4 -12 -2 -16 3 -3 6 -12 8 -20 4 -8 -3 -15 0 -15 7 0 6 -4 9
-10 5 -5 -3 -39 1 -75 10 -36 8 -69 14 -73 14 -4 -1 -9 0 -12 1 -7 3 -40 8
-80 14 -19 3 -36 6 -37 7 -2 1 -7 3 -13 4 -5 1 -11 3 -12 5 -10 8 -48 5 -48
-4 0 -6 -4 -5 -9 3 -5 8 -16 11 -25 8 -9 -4 -16 -2 -16 3 0 5 -14 8 -30 6 -17
-2 -33 0 -36 5 -3 5 -15 9 -27 8 -44 0 -103 7 -116 16 -10 6 -12 4 -6 -5 6 -9
4 -11 -6 -4 -8 4 -34 10 -59 12 -24 2 -48 8 -52 15 -6 9 -8 9 -8 0 0 -7 -9
-10 -22 -7 -24 6 -69 10 -178 15 -36 2 -68 8 -72 14 -5 6 -8 6 -8 -2z"/>
<path d="M12039 18543 c-2 -15 -5 -31 -9 -38 -3 -5 -3 -6 -15 -50 -4 -16 -11
-34 -15 -40 -8 -11 -24 -66 -22 -77 1 -3 -5 -11 -13 -18 -7 -6 -11 -18 -8 -26
3 -8 0 -14 -6 -14 -6 0 -11 -9 -11 -20 0 -11 -4 -20 -10 -20 -5 0 -10 -7 -10
-15 0 -18 -40 -97 -54 -107 -6 -4 -7 -8 -3 -8 5 0 -1 -17 -12 -37 -25 -46 -45
-95 -43 -105 1 -5 -2 -8 -6 -8 -5 0 -9 -6 -9 -12 0 -7 -10 -35 -23 -63 -43
-95 -50 -113 -50 -124 0 -6 -4 -11 -10 -11 -5 0 -9 -3 -8 -7 3 -8 -35 -94 -53
-123 -5 -8 -19 -35 -32 -60 -12 -25 -25 -47 -28 -50 -3 -3 -16 -26 -29 -52
-13 -27 -27 -48 -31 -48 -4 0 -11 -10 -14 -22 -4 -13 -22 -45 -40 -73 -194
-298 -280 -423 -300 -437 -5 -4 -7 -8 -2 -8 4 0 -1 -8 -10 -18 -10 -11 -27
-32 -38 -48 -11 -15 -28 -36 -37 -46 -10 -10 -15 -18 -10 -18 4 -1 -4 -10 -17
-20 -13 -11 -20 -20 -16 -20 5 0 -54 -80 -75 -100 -3 -3 -19 -23 -35 -45 -30
-40 -51 -67 -70 -89 -5 -6 -23 -29 -40 -51 -28 -38 -41 -54 -90 -112 -11 -13
-29 -35 -40 -49 -11 -14 -30 -37 -42 -49 -13 -13 -23 -28 -23 -32 0 -5 -8 -16
-17 -24 -10 -9 -30 -31 -45 -50 -14 -19 -36 -45 -48 -59 -12 -14 -49 -58 -82
-97 -34 -40 -65 -73 -70 -73 -5 0 -7 -4 -3 -9 3 -5 -3 -16 -13 -23 -10 -7 -31
-31 -47 -53 -17 -21 -37 -47 -45 -55 -55 -59 -85 -96 -83 -102 2 -5 -2 -8 -8
-8 -12 0 -44 -30 -32 -30 4 0 3 -4 -2 -8 -9 -6 -115 -126 -159 -179 -6 -8 -30
-34 -52 -58 -23 -25 -40 -45 -37 -45 2 0 -6 -10 -19 -23 -13 -13 -48 -52 -78
-87 -30 -34 -62 -71 -71 -82 -9 -10 -45 -50 -79 -88 -34 -38 -70 -79 -81 -91
-48 -55 -149 -166 -191 -210 -26 -27 -44 -49 -40 -49 4 0 -5 -11 -20 -24 -16
-13 -28 -29 -28 -35 0 -7 -4 -10 -9 -7 -5 3 -16 -4 -24 -17 -8 -12 -36 -44
-61 -72 -25 -27 -46 -53 -46 -58 0 -4 -3 -6 -7 -4 -5 2 -16 -4 -25 -15 -10
-10 -16 -18 -13 -18 3 0 -8 -13 -25 -30 -16 -16 -30 -34 -30 -40 0 -6 -4 -8
-10 -5 -5 3 -10 2 -10 -2 0 -5 -26 -36 -57 -69 -32 -32 -73 -76 -90 -97 -18
-21 -33 -35 -33 -32 0 4 -12 -8 -27 -27 -16 -18 -53 -58 -83 -89 -30 -31 -85
-88 -122 -126 -37 -39 -69 -68 -72 -66 -2 3 -7 -5 -11 -16 -3 -12 -14 -21 -22
-21 -9 0 -13 -3 -10 -7 4 -3 -8 -17 -25 -30 -18 -12 -28 -23 -24 -23 4 0 -13
-17 -37 -37 -25 -21 -51 -48 -58 -60 -7 -13 -14 -21 -17 -19 -2 3 -35 -26 -73
-64 -38 -38 -69 -68 -69 -66 0 2 -31 -26 -70 -63 -141 -134 -180 -168 -185
-163 -2 3 -7 -3 -11 -12 -3 -9 -13 -16 -21 -16 -8 0 -11 -4 -8 -10 3 -5 2 -10
-4 -10 -8 0 -67 -49 -123 -102 -10 -10 -20 -18 -23 -18 -4 0 -22 -16 -42 -35
-20 -19 -41 -32 -47 -28 -6 3 -8 3 -4 -2 7 -7 -14 -35 -26 -35 -6 0 -46 -32
-77 -62 -9 -9 -20 -14 -22 -11 -3 2 -11 -5 -17 -17 -6 -12 -14 -19 -17 -17 -2
3 -13 -2 -22 -11 -38 -36 -72 -62 -81 -62 -6 0 -10 -4 -10 -9 0 -5 -9 -13 -20
-16 -11 -4 -18 -11 -15 -16 4 -5 1 -9 -6 -9 -6 0 -46 -26 -88 -57 -42 -32 -79
-57 -83 -55 -5 1 -8 -5 -8 -14 0 -8 -4 -12 -10 -9 -5 3 -10 2 -10 -4 0 -5 -8
-12 -17 -15 -10 -3 -34 -19 -53 -36 -19 -16 -40 -30 -46 -30 -7 0 -14 -7 -18
-15 -3 -8 -12 -15 -21 -15 -8 0 -15 -4 -15 -10 0 -5 -7 -10 -15 -10 -8 0 -15
-4 -15 -10 0 -5 -5 -10 -10 -10 -6 0 -20 -9 -32 -20 -12 -11 -28 -20 -35 -20
-8 0 -12 -4 -9 -8 3 -5 -10 -15 -29 -22 -19 -7 -32 -17 -29 -22 3 -4 -4 -8
-15 -8 -10 0 -21 -4 -23 -8 -4 -12 -98 -74 -98 -66 0 4 -8 -3 -19 -14 -10 -12
-21 -19 -25 -15 -3 3 -6 1 -6 -5 0 -7 -7 -12 -15 -12 -8 0 -15 -4 -15 -9 0 -5
-8 -11 -17 -15 -18 -6 -48 -23 -69 -41 -24 -20 -128 -80 -132 -77 -3 2 -8 -1
-11 -6 -8 -12 -189 -122 -202 -122 -5 0 -9 -4 -9 -10 0 -5 -4 -10 -10 -10 -5
0 -31 -13 -57 -28 -47 -28 -169 -95 -235 -130 -18 -9 -36 -21 -40 -27 -4 -5
-8 -6 -8 -1 0 5 -8 3 -17 -5 -10 -8 -49 -30 -88 -49 -38 -19 -72 -37 -75 -40
-7 -8 -68 -33 -76 -30 -4 1 -11 -5 -16 -14 -5 -9 -13 -14 -19 -11 -5 4 -9 1
-9 -4 0 -6 -3 -10 -7 -9 -5 1 -32 -10 -60 -25 -29 -15 -53 -24 -53 -20 0 5 -5
1 -10 -7 -5 -8 -13 -15 -17 -16 -4 0 -21 -6 -38 -13 -16 -7 -32 -12 -34 -11
-2 1 -7 -2 -10 -7 -6 -8 -75 -42 -89 -44 -4 0 -14 -7 -22 -14 -8 -7 -18 -14
-23 -14 -16 0 -87 -35 -87 -44 0 -4 -4 -6 -9 -3 -5 3 -41 -10 -80 -29 -39 -19
-73 -35 -76 -35 -2 0 -34 -14 -72 -32 -37 -17 -74 -31 -80 -31 -7 0 -13 -4
-13 -8 0 -4 -10 -9 -23 -13 -13 -3 -50 -18 -83 -32 -32 -15 -63 -28 -69 -30
-5 -1 -36 -14 -67 -28 -32 -14 -58 -22 -58 -18 0 4 -4 1 -8 -5 -4 -7 -17 -14
-27 -16 -18 -4 -35 -10 -135 -55 -19 -8 -39 -16 -45 -17 -5 -2 -23 -9 -40 -16
-16 -7 -32 -13 -35 -14 -3 -1 -18 -7 -35 -14 -16 -8 -39 -17 -50 -21 -11 -4
-33 -13 -50 -21 -16 -7 -32 -13 -35 -14 -18 -6 -79 -30 -115 -46 -16 -7 -32
-13 -35 -14 -3 -1 -18 -7 -33 -13 -16 -7 -33 -12 -38 -12 -5 0 -9 -5 -9 -12 0
-6 -3 -8 -7 -5 -3 4 -11 1 -17 -7 -9 -11 -115 -49 -131 -47 -3 0 -29 -8 -57
-19 -56 -20 -174 -52 -195 -53 -7 0 -13 -4 -13 -8 0 -5 -7 -6 -15 -3 -8 4 -15
1 -15 -5 0 -6 -7 -8 -15 -5 -8 4 -22 1 -30 -6 -8 -6 -19 -9 -25 -5 -5 3 -10 1
-10 -6 0 -7 -3 -9 -6 -6 -4 3 -14 2 -24 -3 -9 -5 -30 -12 -46 -15 -44 -9 -105
-27 -144 -42 -21 -9 -21 -9 -55 -17 -16 -4 -41 -12 -55 -18 -14 -6 -35 -12
-47 -13 -25 -4 -91 -24 -115 -36 -13 -6 -18 -5 -18 3 0 9 -3 10 -8 2 -6 -10
-47 -27 -62 -27 -3 0 -29 -8 -57 -18 -29 -10 -53 -15 -53 -11 0 4 -4 2 -8 -4
-4 -6 -25 -16 -47 -22 -22 -6 -107 -31 -189 -56 -82 -25 -155 -46 -163 -46 -7
0 -13 -5 -13 -11 0 -5 -4 -8 -9 -4 -5 3 -20 1 -33 -4 -24 -10 -136 -44 -153
-47 -5 -1 -35 -9 -65 -18 -48 -15 -206 -60 -250 -71 -8 -2 -17 -4 -20 -5 -3
-1 -13 -2 -22 -1 -10 1 -18 -3 -18 -9 0 -6 -4 -9 -9 -5 -5 3 -12 1 -16 -4 -3
-5 -14 -8 -25 -6 -11 2 -20 -1 -20 -7 0 -6 -3 -9 -6 -6 -3 4 -20 2 -37 -3 -18
-5 -45 -12 -62 -15 -103 -18 -103 -18 -205 -44 -47 -12 -95 -24 -107 -26 -12
-2 -91 -25 -175 -50 -84 -26 -157 -47 -163 -49 -5 -1 -17 -5 -25 -8 -24 -9
-144 -49 -155 -51 -5 -2 -34 -13 -62 -26 -57 -26 -66 -41 -79 -135 -9 -59 -8
-244 0 -330 11 -107 17 -159 23 -190 2 -16 6 -43 8 -60 8 -69 22 -160 25 -160
1 0 3 -13 5 -30 6 -46 14 -98 19 -120 4 -23 18 -121 21 -147 1 -10 4 -20 7
-24 4 -3 4 -12 1 -20 -3 -8 -1 -20 4 -27 5 -6 11 -30 12 -52 2 -22 6 -42 9
-45 4 -3 8 -21 10 -40 1 -19 6 -46 11 -60 5 -14 14 -52 21 -85 7 -33 15 -67
18 -75 7 -19 6 -18 16 -65 4 -22 12 -46 18 -52 6 -7 8 -13 5 -13 -3 0 1 -24
10 -52 8 -29 17 -60 18 -68 2 -8 4 -16 5 -17 2 -2 4 -7 5 -13 1 -5 3 -11 5
-12 1 -2 3 -10 5 -18 6 -29 73 -235 93 -287 11 -29 17 -54 14 -57 -3 -4 -1 -6
5 -6 8 0 35 -69 33 -85 0 -3 6 -13 15 -21 8 -9 13 -20 10 -25 -4 -5 -2 -9 3
-9 5 0 14 -18 21 -40 6 -22 17 -40 23 -40 6 0 9 -3 5 -6 -3 -4 5 -28 19 -55
13 -27 21 -49 18 -49 -4 0 0 -8 8 -17 8 -10 23 -39 33 -65 10 -27 22 -48 26
-48 5 0 9 -6 9 -14 0 -13 88 -195 100 -206 5 -5 33 -60 35 -70 0 -3 12 -23 26
-45 14 -22 33 -56 43 -75 36 -70 49 -95 55 -100 3 -3 13 -18 21 -35 8 -16 34
-63 57 -103 23 -39 39 -72 35 -72 -4 0 -2 -4 4 -8 12 -8 174 -291 174 -304 0
-4 5 -8 10 -8 6 0 10 -5 10 -10 0 -13 100 -174 111 -178 5 -2 9 -12 9 -22 0
-10 7 -21 16 -24 8 -3 13 -10 10 -15 -4 -5 -3 -11 2 -13 12 -5 104 -138 95
-138 -4 0 3 -7 15 -16 12 -8 22 -19 22 -25 0 -5 8 -18 18 -29 9 -10 27 -31 39
-44 13 -14 23 -27 23 -29 0 -17 201 -220 240 -243 16 -10 30 -22 30 -26 0 -4
6 -8 14 -8 8 0 16 -4 18 -8 5 -14 90 -66 148 -92 30 -14 57 -28 58 -33 2 -4 7
-5 12 -2 5 3 14 -1 22 -8 7 -7 25 -18 40 -24 15 -7 30 -23 34 -38 5 -18 16
-27 46 -35 30 -9 43 -19 54 -43 l14 -32 -5 39 c-3 21 -7 42 -10 46 -5 9 30 58
58 80 11 8 41 35 67 60 64 60 96 88 150 130 25 19 47 38 48 42 2 5 8 8 13 8 5
0 18 8 29 17 11 10 29 26 40 36 11 9 24 17 28 17 4 0 25 18 47 40 21 21 42 37
47 34 4 -3 8 -1 8 3 0 13 57 73 69 73 6 0 10 4 8 8 -1 4 15 25 35 46 21 22 38
35 38 30 0 -5 4 -4 8 1 8 11 82 49 97 50 6 0 13 5 17 10 4 6 11 10 15 11 18 1
103 47 103 56 0 5 4 7 9 3 6 -3 18 3 28 14 10 10 28 22 41 25 12 4 22 12 22
17 0 5 10 9 22 9 12 0 18 3 15 6 -6 6 16 21 83 56 14 7 27 15 30 19 3 3 12 9
20 13 16 7 40 22 80 47 14 9 126 78 250 153 124 75 232 141 240 147 8 5 23 12
33 15 9 4 17 9 17 13 0 4 16 13 35 21 19 8 35 17 35 22 0 4 7 8 15 8 8 0 15 5
15 12 0 6 3 8 6 5 4 -4 20 3 35 14 16 11 29 17 29 12 0 -4 4 -3 8 3 8 12 83
59 94 59 4 0 18 9 30 19 12 11 30 20 39 21 9 1 24 8 32 16 44 39 45 39 61 14
9 -14 14 -25 11 -25 -4 0 1 -12 9 -27 13 -23 32 -65 41 -93 1 -3 5 -12 8 -20
3 -8 16 -46 27 -85 12 -38 25 -79 30 -90 8 -19 19 -60 26 -95 2 -8 7 -23 12
-35 27 -57 115 -393 108 -412 -3 -6 -2 -14 2 -18 4 -4 8 -19 8 -33 1 -15 3
-27 4 -27 2 0 5 -23 15 -125 3 -41 9 -78 11 -82 3 -4 0 -8 -6 -8 -7 0 -8 -6
-1 -18 5 -10 7 -147 5 -332 -2 -173 -6 -526 -8 -785 -5 -529 -11 -675 -30
-820 -3 -22 -8 -65 -11 -95 -4 -30 -10 -71 -15 -90 -5 -19 -11 -57 -15 -85 -3
-27 -8 -57 -10 -65 -5 -17 -13 -60 -21 -110 -3 -19 -7 -42 -9 -50 -2 -8 -7
-30 -10 -49 -3 -19 -11 -43 -16 -54 -8 -15 -8 -18 1 -12 9 6 9 2 1 -14 -7 -11
-10 -21 -7 -21 3 0 -1 -21 -9 -48 -14 -47 -22 -88 -31 -152 -3 -19 -9 -39 -14
-45 -5 -6 -8 -21 -5 -33 2 -12 1 -22 -3 -22 -4 0 -8 -8 -8 -17 -1 -15 -11 -73
-38 -211 -3 -12 -8 -27 -11 -32 -3 -6 0 -10 7 -10 8 0 9 -3 3 -8 -5 -4 -11
-12 -12 -18 -4 -21 -14 -89 -17 -112 -1 -13 -8 -27 -15 -31 -7 -5 -13 -12 -13
-17 0 -5 -3 -15 -6 -23 -3 -7 0 -46 7 -85 7 -39 14 -81 16 -93 2 -12 6 -27 10
-32 3 -6 8 -20 10 -31 5 -26 53 -121 71 -141 8 -8 14 -19 14 -22 0 -17 112
-137 128 -137 7 0 12 -4 12 -8 0 -15 104 -61 148 -64 7 -1 23 -11 36 -23 13
-12 30 -22 37 -23 16 -1 54 -10 54 -12 0 -1 25 -3 55 -5 30 -1 57 -4 60 -5 3
-1 10 -1 15 0 34 7 55 6 55 -4 0 -7 3 -7 8 -1 4 6 21 11 37 11 57 3 250 21
250 24 0 1 16 3 35 6 33 4 64 9 120 19 69 13 98 18 127 19 17 0 29 4 26 9 -2
4 6 7 19 8 13 0 32 3 43 5 11 3 31 6 45 8 60 9 119 17 169 26 29 5 57 7 62 4
5 -3 9 -1 9 3 0 5 10 10 23 10 22 1 64 8 122 18 17 3 41 8 55 10 86 13 142 25
152 31 4 3 8 -1 8 -8 0 -9 3 -10 8 -2 4 6 21 14 37 18 58 11 100 18 130 21 17
2 37 5 45 9 17 6 61 15 105 21 17 2 41 7 55 10 42 10 102 22 160 31 19 3 53
10 75 15 22 5 54 11 70 14 42 6 59 10 70 16 6 3 20 4 33 3 12 0 22 3 22 7 0 5
9 9 20 9 10 0 45 7 77 16 99 27 213 52 213 47 0 -3 7 0 15 7 8 7 15 10 15 7 0
-3 32 3 70 13 39 10 70 16 70 13 0 -3 6 -1 13 4 6 6 19 11 27 11 19 1 100 20
120 29 18 7 26 9 64 17 16 3 32 9 35 13 7 9 26 14 58 17 13 0 23 4 23 8 0 9
80 32 98 29 6 -1 12 4 12 10 0 7 3 9 7 6 3 -4 15 0 25 10 10 9 18 13 18 9 0
-3 11 1 25 10 14 9 25 12 25 8 0 -5 4 -4 8 3 4 6 20 14 35 17 15 2 35 7 45 10
9 3 33 7 52 10 19 3 60 12 90 20 30 8 58 12 62 10 5 -3 8 0 8 5 0 6 9 11 20
11 11 0 20 5 20 11 0 6 6 9 14 6 8 -3 20 1 26 9 7 8 18 14 24 14 7 0 27 11 46
25 18 13 37 22 41 19 5 -3 9 -1 9 5 0 5 8 12 19 16 21 6 141 122 134 129 -3 2
5 10 17 16 12 6 19 14 16 17 -3 3 1 12 9 19 13 13 52 107 61 149 10 41 11 115
2 115 -5 0 -6 4 -3 10 3 5 -10 37 -30 71 -20 34 -37 66 -38 72 -1 6 -10 20
-19 31 -10 11 -18 26 -18 33 0 8 -7 25 -16 38 -9 14 -12 25 -8 25 5 0 2 5 -6
10 -8 5 -16 13 -16 17 -4 23 -17 53 -23 53 -4 0 -7 10 -8 22 -1 11 -6 24 -11
27 -4 3 -19 29 -32 56 -13 28 -30 59 -39 69 -13 16 -13 18 -1 11 13 -7 12 -5
-1 11 -21 26 -66 125 -67 148 0 5 -4 12 -9 15 -11 8 -66 139 -66 157 0 8 -4
14 -7 14 -8 0 -59 140 -79 215 -5 22 -14 51 -18 65 -4 14 -8 30 -9 35 -1 6 -3
13 -4 18 -1 4 -4 12 -5 17 -1 6 -3 11 -5 13 -3 4 -10 41 -13 69 -1 16 -6 28
-11 28 -4 0 -6 7 -2 15 3 8 1 15 -4 15 -6 0 -10 5 -10 11 0 5 4 8 10 4 5 -3 3
7 -5 22 -8 15 -15 36 -15 45 0 9 -4 19 -9 23 -6 3 -8 14 -6 25 2 11 -1 20 -7
20 -6 0 -8 3 -5 7 4 3 3 11 -2 17 -5 6 -14 36 -21 66 -7 30 -15 60 -19 65 -3
6 -6 12 -7 15 0 3 -4 14 -9 25 -30 74 -44 115 -37 115 4 0 2 4 -3 8 -6 4 -19
34 -29 67 -11 33 -24 66 -29 72 -5 7 -6 13 -1 13 5 0 4 4 -3 8 -6 4 -15 21
-18 37 -7 34 -13 58 -15 65 -1 3 -2 8 -1 13 0 4 -4 7 -10 7 -6 0 -9 7 -5 15 3
8 2 15 -2 15 -13 0 -94 185 -85 194 4 3 1 6 -5 6 -7 0 -12 6 -12 13 0 6 -11
25 -25 41 -14 16 -25 33 -25 38 0 4 -7 8 -16 8 -8 0 -12 5 -9 10 3 6 1 10 -5
10 -6 0 -23 11 -37 24 -15 14 -30 23 -35 20 -4 -3 -8 -2 -8 3 0 4 -17 19 -38
33 -50 34 -53 36 -85 64 -16 14 -44 30 -63 36 -19 6 -34 16 -34 22 0 6 -3 9
-6 5 -14 -14 -418 142 -526 203 -10 6 -25 10 -33 10 -8 0 -15 5 -15 10 0 6 -6
10 -13 10 -17 0 -97 73 -97 88 0 6 -4 12 -8 14 -18 7 -83 130 -120 228 -49
128 -55 143 -57 153 -2 4 -3 8 -5 10 -1 1 -3 10 -5 20 -3 15 6 20 31 16 4 0
10 3 13 8 7 10 28 22 171 93 52 26 106 51 120 55 42 13 165 78 173 92 4 7 15
13 22 13 8 0 15 4 15 9 0 5 14 14 30 21 17 7 30 16 30 20 0 4 14 13 30 20 17
7 30 17 30 23 0 6 3 8 6 5 3 -4 14 1 24 10 10 9 33 28 50 42 18 14 46 37 62
52 16 16 32 28 35 28 3 0 14 10 24 22 11 11 19 18 19 15 0 -3 24 20 53 51 28
31 62 66 75 78 12 12 22 26 22 33 0 6 4 11 9 11 12 0 49 77 55 115 2 17 5 30
6 30 1 0 3 7 5 15 8 33 37 146 39 155 2 6 5 15 6 20 1 6 7 21 12 35 5 14 11
32 13 40 2 8 13 44 26 80 23 66 24 75 33 193 3 37 8 80 11 95 12 61 17 135 20
297 2 94 5 179 8 190 3 11 6 23 6 26 1 3 7 6 14 7 6 0 21 3 32 6 11 3 50 14
87 24 37 11 70 17 73 14 3 -3 5 1 5 8 0 7 3 11 6 7 3 -3 29 1 57 10 28 8 60
17 71 20 35 7 51 11 56 14 3 1 10 3 15 4 6 2 12 4 15 5 3 1 12 3 20 5 8 2 53
14 100 25 184 47 193 49 202 44 4 -3 8 -1 8 4 0 5 19 13 43 17 68 13 69 13
132 30 70 18 128 30 185 39 9 1 20 5 26 9 6 3 25 8 43 9 17 1 31 6 31 11 0 4
4 6 8 3 4 -2 37 2 72 10 94 21 122 26 153 27 15 1 27 5 27 8 0 4 21 9 48 13
63 8 114 17 172 31 14 3 39 7 55 10 17 2 41 7 55 10 40 8 104 17 123 17 9 -1
17 2 17 6 0 4 12 7 28 8 36 1 88 11 101 18 5 4 13 2 16 -4 4 -7 11 -8 18 -1 7
5 32 12 57 16 25 3 59 9 75 12 17 3 50 7 75 9 25 1 45 3 45 4 0 4 74 16 170
26 28 2 62 9 76 14 18 5 31 4 38 -3 7 -7 11 -7 11 -1 0 5 15 11 33 12 18 1 44
4 57 7 14 3 54 8 90 11 61 6 86 8 163 18 17 2 68 7 112 11 106 10 130 13 130
15 0 1 23 2 50 4 28 1 55 4 60 7 6 3 29 4 53 4 23 0 42 3 42 8 0 5 6 4 13 -2
8 -6 17 -8 21 -4 4 4 24 8 44 9 20 1 82 5 137 9 55 4 107 8 115 8 8 0 21 4 28
10 8 6 12 6 12 -2 0 -9 5 -9 21 0 17 9 20 8 14 -2 -5 -8 -4 -10 4 -5 10 7 70
12 218 20 29 1 56 5 59 9 4 3 15 2 25 -3 10 -6 20 -7 22 -2 3 4 42 7 86 7 45
0 81 2 81 5 0 3 35 5 78 5 42 -1 87 3 100 7 13 4 22 3 22 -3 0 -6 7 -6 19 1
14 7 22 7 26 0 4 -6 12 -7 18 -3 7 5 54 9 104 8 52 0 93 4 93 9 0 6 4 6 10 0
6 -6 29 -8 53 -5 88 13 1040 1 1054 -13 3 -3 12 -1 20 5 7 6 13 7 13 3 0 -5
21 -10 48 -11 83 -2 192 -12 204 -19 7 -5 8 -3 3 6 -5 8 -4 11 3 6 12 -7 83
-17 152 -21 25 -2 45 -4 45 -5 0 -1 11 -3 25 -5 71 -7 136 -15 164 -20 17 -2
45 -7 63 -9 17 -2 37 -7 42 -11 6 -3 11 -1 11 6 0 8 4 8 13 2 6 -6 30 -13 52
-17 58 -9 112 -19 168 -31 55 -12 155 -35 191 -44 22 -5 44 -8 48 -5 4 3 8 0
8 -6 0 -7 6 -10 14 -7 8 3 17 3 21 -1 4 -4 10 -7 13 -8 4 0 27 -6 52 -13 25
-7 52 -14 60 -16 8 -2 42 -11 75 -21 33 -9 68 -17 78 -16 9 0 17 -2 17 -6 0
-4 12 -8 28 -9 35 -2 235 -73 244 -87 4 -6 8 -8 8 -4 0 4 16 0 35 -8 23 -9 41
-11 52 -6 18 11 70 139 68 170 -1 12 2 22 7 22 4 0 7 3 6 8 -1 4 1 31 5 60 10
68 17 140 21 213 2 32 7 62 10 67 3 6 2 13 -4 17 -6 4 -7 11 -4 17 16 26 20
728 4 728 -3 0 -6 21 -7 48 -2 58 -11 167 -13 167 -1 0 -4 23 -14 125 -3 25
-5 45 -6 45 -3 0 -8 37 -14 93 -6 57 -12 93 -22 144 -5 27 -12 69 -19 123 -2
17 -8 49 -13 73 -5 23 -7 42 -4 42 2 0 -1 6 -7 13 -6 8 -9 16 -6 19 3 2 -2 30
-10 61 -8 32 -14 61 -13 65 1 4 -3 30 -10 57 -15 64 -23 102 -29 143 -3 17 -8
32 -12 32 -3 0 -7 19 -8 41 -2 23 -6 47 -11 53 -5 6 -8 18 -7 26 1 8 -4 30
-11 48 -7 17 -11 32 -9 32 2 0 -2 21 -10 48 -8 26 -16 58 -19 72 -3 14 -10 40
-15 59 -6 19 -9 37 -6 39 3 3 0 11 -6 19 -6 7 -9 13 -5 13 3 0 1 12 -5 28 -6
15 -19 59 -29 97 -10 39 -30 111 -45 160 -15 50 -29 101 -31 114 -3 13 -9 31
-13 40 -5 9 -9 19 -9 24 -1 12 -32 120 -41 142 -5 11 -15 40 -22 65 -7 25 -16
50 -21 56 -4 6 -5 14 -1 17 3 4 0 13 -7 22 -7 8 -10 22 -6 30 3 8 2 15 -3 15
-7 0 -36 80 -32 88 1 1 -6 16 -14 32 -8 16 -16 33 -16 37 -1 5 -4 14 -7 21 -7
19 6 28 63 41 28 7 97 36 155 64 58 28 108 50 113 49 4 -1 7 2 7 8 0 6 3 9 8
8 4 -1 28 8 54 20 43 19 48 25 63 76 9 30 17 64 18 76 1 11 4 20 7 20 3 0 6
12 6 28 1 15 4 63 8 107 11 129 5 416 -10 487 -2 13 -7 41 -10 63 -3 22 -8 47
-10 55 -5 13 -11 41 -18 75 -1 6 -5 15 -8 21 -4 6 -10 26 -13 44 -3 19 -10 39
-15 46 -6 6 -7 14 -3 17 3 4 1 12 -4 19 -5 7 -20 45 -32 83 -12 39 -28 84 -36
100 -7 17 -21 53 -31 80 -10 28 -24 61 -31 74 -6 14 -10 28 -7 33 3 4 0 8 -5
8 -6 0 -11 6 -11 12 0 17 -138 296 -150 303 -6 4 -8 11 -5 16 4 5 1 9 -5 9 -6
0 -9 4 -6 9 4 5 2 11 -3 13 -10 3 -46 60 -63 101 -7 15 -16 27 -20 27 -4 0 -8
5 -8 10 0 12 -110 192 -164 269 -20 28 -36 55 -36 61 0 5 -4 10 -8 10 -4 0
-16 13 -25 30 -10 16 -23 35 -30 42 -7 8 -36 43 -66 78 -67 80 -169 182 -236
235 -27 22 -53 45 -57 50 -4 6 -8 6 -8 1 0 -5 -6 -4 -12 2 -7 6 -16 11 -20 11
-5 1 -9 2 -10 2 -8 3 -80 9 -128 9 -53 1 -157 -25 -230 -57 -76 -33 -185 -88
-188 -95 -2 -5 -8 -8 -14 -8 -5 0 -21 -9 -35 -20 -33 -26 -46 -25 -59 3 -15
33 -58 111 -64 117 -3 3 -12 19 -20 35 -8 17 -30 54 -48 83 -18 28 -29 52 -25
52 4 0 3 4 -2 8 -6 4 -19 24 -30 45 -11 20 -23 37 -28 37 -4 0 -6 4 -3 9 4 5
3 11 -1 13 -5 1 -18 22 -30 46 -13 23 -33 61 -45 85 -13 23 -26 44 -29 47 -4
3 -16 22 -28 43 -47 83 -59 104 -89 153 -18 28 -32 56 -32 63 0 6 -4 11 -9 11
-5 0 -11 8 -14 18 -6 18 -38 74 -48 82 -3 3 -23 35 -43 72 -21 37 -42 70 -47
74 -5 3 -7 10 -4 15 4 5 1 9 -4 9 -6 0 -11 7 -11 15 0 8 -4 15 -10 15 -5 0
-10 7 -10 15 0 8 -4 15 -10 15 -5 0 -10 9 -10 21 0 11 -4 17 -10 14 -5 -3 -10
0 -10 8 0 15 -60 110 -72 115 -5 2 -6 8 -2 13 3 5 0 9 -5 9 -6 0 -11 9 -11 19
0 10 -7 21 -15 25 -8 3 -15 12 -15 19 0 8 -11 26 -25 41 -13 14 -22 26 -19 26
3 0 -13 27 -36 59 -22 33 -40 65 -40 70 0 6 -4 11 -10 11 -5 0 -10 5 -10 10 0
12 -41 73 -52 78 -5 2 -8 10 -8 18 0 8 -4 14 -10 14 -5 0 -10 6 -10 14 0 8 -3
16 -7 18 -5 2 -28 32 -52 68 -25 36 -50 68 -55 72 -7 5 -7 8 -1 8 6 0 3 6 -5
13 -8 7 -21 21 -28 32 -7 11 -22 35 -33 53 -12 17 -25 32 -30 32 -5 0 -9 8 -9
18 0 9 -9 23 -20 30 -11 7 -20 17 -20 23 0 7 -11 22 -25 35 -14 13 -25 26 -25
29 0 8 -101 136 -122 156 -10 9 -18 21 -18 27 0 5 -7 13 -16 16 -8 3 -12 10
-9 16 3 5 -2 10 -11 10 -10 0 -15 3 -11 6 6 6 -5 19 -70 89 -18 19 -33 37 -33
39 0 5 -29 38 -133 150 -82 88 -229 235 -282 282 -31 27 -72 64 -91 82 -19 17
-37 32 -40 32 -3 0 -11 6 -18 13 -8 7 -32 29 -56 48 -23 18 -54 44 -68 57 -24
20 -140 80 -160 83 -4 1 -16 6 -26 11 -30 16 -96 17 -97 1z m4026 -4378 c16
-36 16 -38 1 -26 -9 8 -14 16 -12 19 3 2 -2 19 -11 36 -8 17 -11 27 -5 21 6
-5 18 -28 27 -50z m-544 -5283 c-7 -2 -18 1 -23 6 -8 8 -4 9 13 5 13 -4 18 -8
10 -11z"/>
<path d="M15856 18158 c3 -4 0 -8 -5 -8 -6 0 -18 -27 -27 -60 -10 -32 -20 -57
-25 -55 -4 3 -6 -3 -4 -12 1 -10 -2 -27 -8 -38 -6 -11 -10 -23 -9 -27 1 -5 -3
-8 -9 -8 -6 0 -9 -6 -6 -14 3 -7 -3 -20 -14 -29 -27 -24 -24 -42 9 -44 15 0
52 -4 82 -8 30 -4 64 -8 75 -9 11 -1 26 -5 33 -9 7 -5 12 -3 12 5 0 9 3 9 8 2
6 -10 33 -16 132 -29 55 -8 64 -10 76 -18 6 -3 25 -8 43 -9 17 -1 31 -5 31 -8
0 -3 10 -7 23 -8 31 -2 59 -8 79 -16 9 -4 22 -9 30 -10 36 -8 77 -19 111 -32
21 -8 43 -12 48 -9 5 4 9 1 9 -6 0 -7 3 -9 7 -6 3 4 12 2 20 -4 7 -6 13 -8 13
-4 0 4 6 3 13 -2 13 -11 67 -27 80 -25 4 1 7 -2 7 -7 0 -6 9 -8 20 -6 11 2 20
0 20 -6 0 -5 9 -9 19 -9 11 0 23 -4 26 -10 3 -5 17 -10 30 -10 13 0 25 -4 27
-10 2 -5 12 -11 23 -13 11 -2 36 -10 55 -19 19 -9 51 -22 70 -29 19 -7 38 -17
41 -21 3 -5 16 -10 27 -11 12 -1 22 -4 22 -8 0 -3 18 -12 40 -19 22 -7 40 -17
40 -21 0 -4 9 -6 19 -4 11 2 22 -3 25 -11 3 -8 18 -14 33 -14 22 0 25 -2 13
-10 -13 -8 -12 -10 3 -10 10 0 32 -8 50 -17 18 -9 36 -16 40 -15 4 1 10 -5 13
-13 4 -8 15 -15 25 -15 10 0 19 -4 19 -10 0 -5 3 -9 8 -9 16 4 72 -23 66 -32
-4 -8 4 -10 31 -9 3 0 15 -9 27 -20 12 -11 28 -20 35 -20 7 0 13 -5 13 -11 0
-5 5 -7 10 -4 6 3 10 1 10 -6 0 -7 3 -9 6 -6 4 4 15 -3 25 -15 11 -11 19 -17
19 -13 0 4 8 1 18 -8 10 -10 22 -14 25 -10 4 3 7 1 7 -6 0 -7 5 -9 10 -6 6 3
10 -1 10 -10 0 -9 5 -13 10 -10 6 3 10 1 10 -4 0 -6 6 -11 13 -11 7 0 23 -9
35 -20 12 -11 25 -20 30 -20 4 0 18 -9 30 -20 12 -12 22 -19 22 -16 0 3 12 -6
26 -19 15 -14 33 -25 39 -25 7 0 16 -7 19 -16 3 -8 10 -12 16 -9 5 3 10 -1 10
-10 0 -9 5 -13 10 -10 6 3 10 1 10 -5 0 -6 5 -8 10 -5 6 3 10 2 10 -4 0 -5 15
-19 33 -30 17 -11 44 -31 59 -43 14 -13 39 -32 54 -43 36 -26 71 -55 100 -81
12 -12 25 -19 28 -16 3 3 6 -3 6 -13 0 -10 3 -16 6 -13 6 6 31 -15 114 -95 28
-26 50 -46 50 -43 0 2 22 -17 48 -43 27 -25 47 -49 45 -53 -3 -5 0 -8 5 -8 5
0 30 -21 55 -47 105 -109 155 -163 150 -163 -3 0 10 -16 28 -35 47 -48 59 -63
59 -72 0 -5 9 -14 20 -21 11 -7 20 -19 20 -28 0 -8 5 -12 10 -9 6 3 10 1 10
-4 0 -11 15 -31 57 -79 13 -13 20 -28 17 -33 -3 -5 2 -9 10 -9 9 0 16 -7 16
-15 0 -9 7 -18 15 -21 8 -4 12 -10 9 -15 -3 -5 0 -9 5 -9 6 0 11 -7 11 -15 0
-8 5 -15 10 -15 6 0 10 -7 10 -16 0 -8 5 -12 10 -9 6 3 10 -1 10 -10 0 -9 11
-27 25 -41 14 -14 23 -29 20 -34 -3 -4 -1 -10 3 -12 12 -4 79 -108 91 -140 6
-16 15 -28 21 -28 5 0 10 -9 10 -20 0 -11 4 -20 9 -20 10 0 27 -39 23 -53 -1
-5 1 -6 6 -3 7 4 35 -45 32 -59 0 -3 9 -15 19 -27 11 -11 18 -25 15 -30 -3 -4
-1 -8 5 -8 5 0 12 -13 16 -30 4 -16 10 -30 15 -30 7 0 30 -52 31 -70 0 -3 7
-12 14 -20 7 -8 17 -27 20 -42 4 -16 11 -28 16 -28 5 0 8 -3 7 -7 -1 -5 5 -21
12 -38 7 -16 13 -33 12 -37 -1 -5 3 -8 8 -8 5 0 9 -3 9 -7 -1 -8 0 -12 6 -30
2 -5 6 -18 10 -30 4 -13 12 -23 17 -23 6 0 8 -7 5 -15 -4 -8 -2 -17 4 -20 5
-4 7 -11 4 -16 -4 -5 -1 -9 5 -9 7 0 10 -6 7 -14 -3 -7 0 -19 6 -25 6 -6 7
-11 2 -11 -6 0 -4 -4 3 -8 11 -8 22 -38 24 -69 1 -7 5 -13 10 -13 5 0 8 -6 6
-12 -1 -7 3 -22 9 -33 6 -11 11 -23 11 -28 1 -16 15 -72 20 -82 7 -11 11 -27
14 -62 1 -13 5 -23 9 -23 4 0 7 -11 8 -25 3 -49 4 -55 15 -55 6 0 4 -5 -4 -10
-8 -5 -10 -10 -4 -10 7 0 14 -15 17 -32 3 -18 8 -49 11 -68 3 -19 8 -53 11
-75 2 -22 6 -49 8 -60 5 -20 17 -133 23 -215 10 -129 3 -490 -12 -610 -3 -30
-8 -68 -9 -85 -2 -16 -4 -30 -5 -30 -1 0 -3 -18 -6 -40 -2 -22 -6 -55 -9 -72
-7 -47 -16 -106 -19 -123 -1 -8 -6 -21 -10 -29 -7 -10 -6 -12 4 -6 10 6 11 4
4 -6 -4 -8 -10 -22 -11 -31 -6 -35 -12 -63 -13 -63 -1 0 -4 -12 -6 -27 -9 -61
-11 -74 -17 -88 -6 -16 -14 -56 -23 -110 -3 -19 -11 -41 -16 -48 -6 -7 -8 -15
-5 -19 4 -3 2 -12 -4 -20 -6 -7 -8 -13 -4 -13 4 0 1 -8 -6 -17 -8 -10 -9 -14
-2 -10 7 5 6 -3 -3 -22 -8 -17 -17 -40 -20 -53 -8 -38 -9 -41 -28 -98 -10 -30
-22 -59 -27 -64 -5 -6 -9 -18 -9 -27 0 -9 -7 -30 -15 -45 -8 -16 -15 -37 -15
-46 0 -10 -5 -18 -11 -18 -5 0 -8 -4 -4 -9 3 -5 1 -12 -5 -16 -6 -4 -8 -11 -5
-16 4 -5 1 -9 -5 -9 -7 0 -9 -7 -6 -16 4 -10 0 -21 -9 -28 -9 -6 -17 -18 -19
-26 -2 -8 -8 -28 -14 -43 -7 -16 -12 -33 -12 -38 0 -5 -4 -9 -9 -9 -9 0 -26
-48 -23 -62 1 -5 -3 -8 -9 -8 -5 0 -7 -4 -4 -10 3 -5 1 -10 -6 -10 -7 0 -10
-3 -6 -6 3 -4 -1 -13 -9 -21 -8 -8 -12 -18 -9 -23 3 -4 -2 -13 -10 -20 -8 -7
-15 -21 -15 -30 0 -15 8 -18 43 -17 24 0 47 -2 52 -5 6 -3 26 -6 45 -7 32 -1
75 -7 75 -11 0 -2 35 -9 73 -14 17 -3 32 0 32 5 0 17 4 24 22 44 10 10 16 25
14 32 -3 7 -1 13 4 13 6 0 10 7 10 15 0 8 5 15 11 15 5 0 7 5 3 11 -3 6 -3 14
2 18 5 3 15 17 22 30 11 19 11 22 0 15 -7 -4 -5 1 4 12 9 10 17 22 18 26 0 4
6 21 11 38 6 16 9 31 7 33 -1 2 5 11 15 21 9 10 17 25 17 35 0 9 5 22 12 29 7
7 9 12 5 12 -4 0 -1 13 7 29 9 16 12 31 9 35 -4 3 -2 6 4 6 5 0 10 6 11 13 6
46 10 59 20 69 7 7 12 22 12 33 0 12 3 25 8 29 4 4 7 11 8 14 6 37 18 71 23
68 4 -3 6 8 5 22 -1 15 5 39 12 53 7 15 11 29 8 32 -3 3 -2 12 2 19 8 13 11
22 18 63 2 11 6 27 9 35 3 8 13 51 22 95 9 44 18 87 20 96 2 9 6 32 9 50 3 19
8 45 11 59 11 48 16 75 17 108 1 17 6 32 12 32 6 0 4 5 -4 10 -10 7 -11 10 -2
10 8 0 11 9 8 25 -3 14 -2 25 2 25 6 0 12 57 16 143 0 15 4 27 9 27 4 0 3 9
-3 19 -6 13 -7 22 0 26 5 3 9 16 9 28 -1 12 2 74 6 137 10 143 10 302 1 445
-4 61 -8 124 -9 140 -1 17 -6 35 -10 42 -4 6 -3 15 3 18 7 4 7 12 2 18 -4 7
-10 30 -11 51 -2 22 -5 49 -8 60 -2 12 -5 28 -5 36 0 8 -5 21 -11 28 -6 8 -6
12 1 12 11 0 4 38 -11 58 -6 8 -5 12 4 12 10 0 10 3 3 8 -11 7 -30 83 -27 110
0 6 -3 12 -7 12 -5 0 -7 8 -6 18 2 9 0 26 -5 37 -16 41 -22 61 -25 80 -7 39
-10 50 -15 60 -5 9 -9 22 -20 70 -2 6 -8 21 -15 34 -7 14 -11 28 -8 33 3 4 1
8 -5 8 -6 0 -8 7 -5 15 4 8 -1 17 -10 21 -9 3 -14 10 -11 14 6 9 -13 64 -45
135 -12 27 -23 54 -25 60 -4 17 -22 60 -59 134 -19 39 -33 71 -30 71 3 0 -2 7
-10 16 -9 8 -14 20 -11 25 4 5 2 9 -2 9 -9 0 -37 59 -34 73 0 4 -4 7 -9 7 -6
0 -10 4 -10 9 0 5 -16 37 -34 70 -19 34 -32 61 -28 61 4 0 2 4 -4 8 -6 4 -17
19 -25 33 -8 15 -26 49 -42 78 -15 28 -32 51 -38 51 -6 0 -9 7 -5 15 3 8 1 15
-5 15 -6 0 -8 4 -5 8 3 5 -4 15 -15 22 -10 8 -19 20 -19 27 0 6 -8 17 -17 22
-10 6 -14 11 -10 11 5 0 -1 12 -12 26 -12 15 -21 33 -21 40 0 8 -5 14 -10 14
-6 0 -15 11 -20 25 -5 14 -14 25 -19 25 -5 0 -14 12 -20 28 -6 15 -25 42 -41
59 -17 18 -30 36 -30 40 0 4 -14 22 -30 40 -17 18 -30 37 -30 43 0 6 -4 8 -10
5 -5 -3 -10 -1 -10 6 0 11 -75 107 -95 121 -5 4 -7 8 -3 8 4 0 -13 20 -38 45
-24 25 -44 50 -44 55 0 6 -8 10 -17 10 -9 0 -14 3 -10 6 3 4 -16 29 -43 56
-28 28 -50 54 -50 60 0 5 -4 6 -10 3 -5 -3 -10 1 -10 10 0 9 -4 13 -10 10 -5
-3 -10 -2 -10 2 0 13 -77 93 -89 93 -5 0 -13 9 -16 20 -3 11 -11 20 -17 20 -5
0 -25 16 -44 35 -18 19 -38 35 -44 35 -6 0 -9 4 -5 9 3 6 -3 15 -14 21 -11 5
-37 26 -58 45 -20 18 -42 31 -47 28 -6 -4 -8 -3 -4 1 8 9 -17 35 -66 68 -20
14 -33 28 -29 31 3 4 1 7 -6 7 -10 0 -64 38 -107 75 -6 6 -22 17 -34 25 -12 8
-28 21 -36 28 -7 6 -17 12 -22 12 -6 0 -12 3 -14 8 -5 11 -78 64 -78 56 0 -4
-8 3 -19 14 -10 12 -23 22 -29 22 -6 0 -12 3 -14 8 -5 11 -66 52 -78 52 -5 0
-10 5 -10 10 0 6 -7 10 -15 10 -9 0 -18 7 -21 15 -4 8 -10 12 -15 9 -5 -3 -9
-1 -9 3 0 5 -21 20 -47 33 -27 14 -50 28 -53 31 -3 3 -25 16 -50 30 -25 13
-47 27 -50 30 -3 3 -30 19 -60 35 -30 17 -72 40 -93 52 -21 13 -36 17 -32 10
4 -7 -3 -3 -14 10 -11 13 -23 22 -26 21 -12 -3 -65 24 -65 33 0 5 -5 6 -12 2
-6 -4 -17 1 -25 11 -7 11 -13 15 -13 11 0 -5 -7 -3 -15 4 -8 6 -19 9 -25 5 -5
-3 -13 1 -16 9 -3 9 -10 14 -14 11 -5 -3 -16 2 -24 11 -9 8 -16 13 -16 9 0 -3
-13 1 -29 9 -16 9 -31 12 -35 9 -3 -4 -6 -2 -6 4 0 9 -42 27 -46 20 -1 -1 -12
7 -25 18 -12 11 -19 14 -15 7 4 -7 -7 -4 -25 7 -18 11 -36 18 -41 15 -4 -3 -8
0 -8 5 0 6 -3 10 -7 9 -5 -1 -24 4 -43 11 -19 8 -39 15 -45 17 -83 29 -147 53
-152 58 -4 3 -17 6 -30 6 -13 0 -23 4 -23 8 0 7 -16 11 -57 14 -7 1 -13 4 -13
8 0 4 -6 7 -12 8 -33 3 -108 24 -108 31 0 4 -8 7 -17 8 -10 1 -25 3 -33 6 -8
2 -33 7 -55 12 -22 4 -44 10 -50 13 -5 3 -16 7 -25 8 -8 2 -28 5 -45 9 -16 3
-38 6 -47 6 -10 0 -18 4 -18 8 0 4 -18 7 -40 6 -22 -1 -40 2 -40 5 0 3 -8 6
-17 7 -10 1 -31 4 -48 7 -40 9 -94 17 -136 21 -19 2 -34 4 -34 5 0 1 -10 3
-22 4 -12 1 -20 -1 -17 -6z"/>
<path d="M15326 16955 c-11 -8 -17 -15 -13 -15 4 0 0 -11 -9 -25 -9 -14 -14
-25 -10 -25 3 0 -1 -8 -9 -17 -8 -10 -16 -22 -16 -28 0 -5 -5 -16 -11 -22 -8
-9 -7 -13 3 -13 10 -1 8 -4 -3 -11 -10 -5 -18 -17 -18 -25 0 -8 -4 -13 -9 -9
-6 3 -9 -4 -8 -15 1 -11 4 -20 7 -21 3 0 23 -2 45 -3 23 -1 45 -5 51 -8 5 -4
16 -3 24 2 9 5 19 5 27 -2 9 -7 13 -7 13 1 0 7 5 9 13 4 11 -7 62 -12 131 -14
16 0 38 -5 48 -10 12 -7 18 -6 18 1 0 8 6 8 19 0 11 -5 33 -11 48 -12 15 -1
32 -4 38 -7 5 -3 25 -6 45 -8 71 -5 151 -22 168 -36 8 -6 12 -6 12 2 0 7 5 9
13 4 6 -4 18 -9 25 -10 22 -5 37 -10 55 -18 9 -4 24 -5 32 -1 8 3 15 1 15 -5
0 -6 4 -8 9 -4 5 3 12 2 15 -3 3 -5 30 -15 61 -22 31 -7 58 -17 61 -22 3 -4
16 -8 30 -8 13 0 24 -5 24 -10 0 -6 6 -10 13 -9 13 2 60 -14 89 -31 10 -6 25
-10 33 -10 8 0 15 -4 15 -8 0 -4 20 -14 46 -21 25 -7 52 -20 60 -28 8 -9 18
-13 21 -9 3 3 18 -3 32 -13 14 -10 41 -24 59 -32 17 -8 32 -18 32 -22 0 -5 5
-5 10 -2 6 3 13 -1 16 -9 3 -9 9 -14 13 -11 4 2 24 -7 44 -20 20 -14 39 -25
42 -25 4 0 13 -6 20 -12 34 -31 43 -36 49 -31 3 4 6 1 6 -5 0 -7 7 -12 16 -12
8 0 13 -4 10 -8 -2 -4 4 -14 16 -21 16 -10 19 -10 14 1 -4 7 1 3 10 -9 9 -13
22 -23 30 -23 7 0 18 -9 24 -20 6 -11 17 -20 25 -20 7 0 15 -3 17 -8 2 -4 23
-23 48 -42 25 -19 63 -51 85 -72 22 -21 46 -38 53 -38 6 0 12 -7 12 -17 0 -9
3 -14 6 -11 3 4 45 -34 92 -84 48 -50 104 -108 125 -128 20 -21 37 -41 37 -45
0 -4 13 -19 30 -35 16 -15 27 -30 23 -33 -3 -4 2 -9 11 -13 9 -3 16 -12 16
-19 0 -7 3 -15 8 -17 15 -6 71 -85 65 -92 -3 -3 -1 -6 5 -6 6 0 14 -9 17 -20
3 -11 13 -20 21 -20 8 0 13 -4 9 -9 -3 -5 8 -30 25 -54 16 -25 30 -50 30 -56
0 -6 3 -11 8 -11 8 0 32 -48 32 -66 0 -7 7 -17 16 -22 9 -5 15 -12 15 -15 -3
-16 12 -57 20 -57 5 0 9 -9 9 -20 0 -11 5 -20 11 -20 5 0 7 -5 4 -11 -4 -5 1
-19 11 -30 9 -10 14 -19 10 -19 -3 0 0 -13 9 -30 9 -16 13 -30 9 -30 -4 0 -1
-6 5 -13 6 -8 8 -17 4 -20 -3 -4 -1 -7 6 -7 7 0 10 -4 6 -9 -3 -5 -1 -12 4
-16 5 -3 8 -14 6 -25 -2 -11 0 -20 6 -20 5 0 9 -10 9 -22 0 -13 7 -32 15 -42
8 -10 12 -23 9 -28 -4 -6 -2 -20 4 -31 10 -21 27 -102 21 -102 -1 0 3 -11 10
-24 7 -13 15 -40 16 -60 2 -20 4 -37 6 -38 1 -2 3 -7 4 -13 1 -5 3 -11 4 -12
1 -2 4 -18 7 -37 2 -19 7 -46 10 -60 3 -14 8 -46 11 -71 3 -25 10 -53 15 -64
8 -14 7 -17 -3 -11 -8 6 -10 4 -4 -5 9 -15 16 -59 17 -117 1 -24 4 -43 8 -43
3 0 6 -21 5 -46 -1 -26 1 -64 5 -85 5 -24 3 -39 -3 -39 -6 0 -6 -5 0 -12 11
-16 4 -423 -7 -423 -2 0 -12 -97 -13 -122 -1 -13 -4 -23 -7 -23 -3 0 -5 -12
-4 -27 1 -16 -1 -32 -4 -37 -3 -6 -7 -19 -8 -30 -1 -12 -5 -34 -9 -51 -3 -16
-7 -38 -8 -47 -1 -10 -4 -18 -8 -18 -4 0 -6 -8 -4 -17 1 -10 -1 -22 -5 -28 -5
-5 -8 -13 -8 -18 -1 -22 -16 -74 -26 -86 -9 -12 -8 -13 2 -7 11 6 11 4 3 -10
-10 -19 -23 -57 -21 -62 0 -1 -7 -16 -15 -32 -9 -17 -13 -30 -9 -30 4 0 1 -7
-6 -15 -7 -8 -9 -15 -4 -15 5 0 2 -6 -6 -13 -8 -7 -16 -23 -18 -37 -1 -13 -6
-27 -10 -30 -4 -3 -8 -12 -10 -20 -2 -8 -8 -17 -13 -18 -5 -2 -7 -8 -3 -13 3
-5 0 -9 -6 -9 -6 0 -8 -5 -4 -12 4 -6 -1 -17 -11 -24 -10 -8 -16 -17 -12 -20
3 -4 -9 -31 -28 -60 -19 -30 -35 -61 -35 -69 0 -8 -5 -15 -10 -15 -6 0 -14 -8
-17 -17 -4 -10 -15 -27 -25 -37 -10 -11 -18 -26 -18 -33 0 -7 -4 -13 -10 -13
-5 0 -10 -6 -10 -14 0 -8 -7 -17 -16 -20 -8 -3 -12 -10 -9 -16 3 -5 2 -10 -3
-10 -5 0 -22 -19 -38 -42 -16 -24 -31 -45 -34 -48 -16 -15 -50 -70 -43 -70 4
0 0 -5 -10 -11 -9 -6 -15 -14 -12 -20 4 -5 1 -9 -5 -9 -7 0 -10 -6 -7 -14 3
-8 3 -17 -1 -19 -4 -2 -2 -2 5 -1 7 2 15 -1 18 -6 3 -5 13 -9 23 -9 33 -1 82
-13 82 -22 0 -4 9 -6 20 -4 11 2 22 0 25 -4 2 -5 17 -6 31 -3 21 4 25 2 20 -9
-4 -8 2 -3 13 10 12 13 21 20 21 16 0 -4 10 5 22 21 12 16 30 36 40 45 10 9
18 21 18 27 0 6 8 16 18 21 9 6 14 11 10 11 -5 0 0 9 10 19 34 38 41 49 35 55
-4 3 -2 6 4 6 5 0 18 15 28 34 11 19 24 32 29 29 6 -4 8 -3 4 2 -4 4 2 21 13
37 12 16 19 32 15 35 -3 3 1 11 8 17 28 22 156 296 138 296 -4 0 -1 4 7 9 8 5
16 20 18 32 2 13 7 26 11 29 4 3 7 10 8 15 1 18 17 70 24 80 5 6 10 24 11 40
2 17 7 32 10 35 4 3 8 19 10 35 2 17 6 35 10 40 3 6 10 28 14 50 5 22 9 43 10
48 2 4 3 16 4 28 1 13 5 18 14 13 9 -5 9 -4 0 6 -8 9 -9 20 -2 38 5 13 7 27 4
30 -2 3 0 11 6 19 6 7 9 13 5 13 -3 0 -1 11 4 25 7 18 6 25 -3 25 -8 0 -9 2
-1 8 6 4 10 15 8 25 -1 9 3 17 9 17 7 0 5 5 -3 10 -8 5 -10 10 -5 10 6 0 11
15 12 33 1 17 4 66 8 107 12 130 7 562 -7 586 -3 5 -4 24 -3 42 1 17 -3 32 -8
32 -5 0 -4 6 2 13 6 8 8 16 6 19 -10 9 -28 131 -29 191 -1 15 -4 27 -8 27 -5
0 -8 12 -8 28 -1 15 -7 53 -14 85 -8 31 -12 57 -9 57 3 0 0 7 -7 15 -7 8 -9
15 -5 15 4 0 2 6 -4 14 -9 11 -9 15 1 19 11 4 10 6 0 6 -7 1 -10 6 -7 11 4 6
1 17 -5 25 -7 8 -9 15 -5 15 4 0 1 8 -6 17 -12 15 -12 16 1 8 12 -7 13 -6 3 7
-7 8 -10 18 -6 21 3 4 1 7 -4 7 -6 0 -10 11 -8 25 1 14 -2 25 -6 25 -5 0 -8 3
-7 8 0 4 -2 15 -6 24 -4 10 -6 23 -4 30 3 7 -1 19 -9 26 -7 7 -13 24 -13 37 0
13 -4 27 -10 30 -5 3 -10 17 -10 31 0 13 -4 24 -8 24 -4 0 -8 10 -9 22 -1 11
-6 24 -10 27 -8 6 -15 27 -16 49 0 6 -4 12 -9 12 -5 0 -6 5 -3 10 3 6 2 10 -4
10 -6 0 -8 7 -5 15 4 8 1 15 -6 15 -6 0 -9 4 -5 9 3 5 1 12 -5 16 -6 4 -8 11
-5 16 4 5 2 9 -2 9 -9 0 -48 80 -45 93 1 4 -3 7 -9 7 -6 0 -8 7 -5 15 3 9 0
18 -8 21 -7 3 -21 23 -31 45 -10 21 -22 39 -27 39 -5 0 -6 5 -3 10 3 6 1 10
-5 10 -6 0 -9 4 -6 8 3 5 -4 19 -15 30 -11 12 -16 22 -12 22 4 0 1 6 -7 13 -9
7 -27 30 -40 52 -13 22 -32 49 -42 59 -9 10 -15 23 -12 28 3 4 -3 8 -12 8 -10
0 -15 3 -11 6 3 3 -1 13 -9 22 -61 70 -74 88 -74 101 0 8 -3 12 -6 8 -8 -8
-34 18 -34 33 0 6 -4 8 -10 5 -5 -3 -10 -1 -10 5 0 6 -11 22 -25 36 -14 14
-25 29 -25 34 0 6 -6 10 -13 10 -7 0 -19 10 -27 22 -8 11 -23 28 -34 37 -10 9
-41 37 -68 64 -27 26 -54 47 -59 47 -5 0 -9 7 -9 15 0 14 -12 20 -33 16 -5 -1
-6 3 -2 9 3 5 3 10 -2 10 -4 0 -28 18 -53 40 -24 22 -48 40 -53 40 -4 0 -5 5
-2 10 3 6 -3 10 -14 10 -12 0 -21 7 -21 16 0 8 -4 12 -10 9 -5 -3 -10 -2 -10
2 0 5 -14 17 -30 27 -17 9 -41 28 -55 42 -13 13 -26 24 -29 24 -3 0 -39 23
-79 50 -41 28 -79 50 -86 50 -7 0 -10 4 -7 8 2 4 -33 28 -80 52 -46 24 -84 46
-84 50 0 3 -10 7 -22 7 -13 1 -24 7 -26 13 -2 5 -12 10 -23 10 -10 0 -19 5
-19 10 0 6 -6 10 -12 10 -7 0 -34 11 -60 24 -26 12 -44 18 -41 12 4 -6 -3 -3
-14 7 -11 9 -26 17 -35 17 -8 0 -18 3 -22 7 -3 4 -16 8 -28 10 -12 2 -26 7
-32 12 -6 4 -32 14 -58 22 -27 7 -48 18 -48 23 0 5 -3 7 -6 3 -4 -3 -23 1 -42
9 -20 8 -42 12 -49 10 -7 -3 -13 2 -13 11 0 13 -3 14 -11 6 -9 -9 -18 -7 -37
5 -15 9 -27 16 -29 14 -2 -2 -20 0 -41 5 -48 9 -52 10 -54 13 -7 5 -73 17
-142 25 -27 3 -54 9 -60 13 -11 7 -38 10 -108 13 -21 1 -38 4 -38 8 0 3 -19 6
-43 7 -72 2 -141 9 -153 16 -6 4 -14 4 -18 1 -11 -11 -36 -12 -36 -2 0 6 -8 6
-19 -1 -14 -7 -22 -7 -26 0 -5 8 -12 7 -23 -2 -12 -10 -14 -10 -8 0 9 15 6 15
-18 -3z"/>
</g>
</svg>
